<mxfile host="Electron" modified="2023-12-27T01:31:06.788Z" agent="Mozilla/5.0 (X11; Linux x86_64) AppleWebKit/537.36 (KHTML, like Gecko) draw.io/22.1.2 Chrome/114.0.5735.289 Electron/25.9.4 Safari/537.36" etag="pUfkCqDOU2bam6Oxn-mO" version="22.1.2" type="device">
  <diagram id="R2lEEEUBdFMjLlhIrx00" name="Page-1">
    <mxGraphModel dx="1448" dy="887" grid="1" gridSize="10" guides="1" tooltips="1" connect="1" arrows="1" fold="1" page="1" pageScale="1" pageWidth="850" pageHeight="1100" math="0" shadow="0" extFonts="Permanent Marker^https://fonts.googleapis.com/css?family=Permanent+Marker">
      <root>
        <mxCell id="0" />
        <mxCell id="1" parent="0" />
        <mxCell id="fcLKpJor5tCY-odWF6Bs-2" value="driver" style="rounded=0;whiteSpace=wrap;html=1;" parent="1" vertex="1">
          <mxGeometry x="115" y="220" width="130" height="50" as="geometry" />
        </mxCell>
        <mxCell id="fcLKpJor5tCY-odWF6Bs-4" value="passenger" style="rounded=0;whiteSpace=wrap;html=1;" parent="1" vertex="1">
          <mxGeometry x="700" y="325" width="130" height="50" as="geometry" />
        </mxCell>
        <mxCell id="fcLKpJor5tCY-odWF6Bs-6" value="trip" style="rounded=0;whiteSpace=wrap;html=1;" parent="1" vertex="1">
          <mxGeometry x="465" y="135" width="130" height="50" as="geometry" />
        </mxCell>
        <mxCell id="fcLKpJor5tCY-odWF6Bs-9" value="drives" style="rhombus;whiteSpace=wrap;html=1;" parent="1" vertex="1">
          <mxGeometry x="145" y="310" width="80" height="80" as="geometry" />
        </mxCell>
        <mxCell id="fcLKpJor5tCY-odWF6Bs-10" value="requests" style="rhombus;whiteSpace=wrap;html=1;" parent="1" vertex="1">
          <mxGeometry x="680" y="135" width="80" height="80" as="geometry" />
        </mxCell>
        <mxCell id="fcLKpJor5tCY-odWF6Bs-11" value="starts" style="rhombus;whiteSpace=wrap;html=1;" parent="1" vertex="1">
          <mxGeometry x="271.25" y="120" width="80" height="80" as="geometry" />
        </mxCell>
        <mxCell id="fcLKpJor5tCY-odWF6Bs-13" value="name" style="ellipse;whiteSpace=wrap;html=1;" parent="1" vertex="1">
          <mxGeometry y="230" width="85" height="40" as="geometry" />
        </mxCell>
        <mxCell id="fcLKpJor5tCY-odWF6Bs-14" value="phone" style="ellipse;whiteSpace=wrap;html=1;fontStyle=0" parent="1" vertex="1">
          <mxGeometry x="40" y="170" width="85" height="40" as="geometry" />
        </mxCell>
        <mxCell id="fcLKpJor5tCY-odWF6Bs-15" value="password" style="ellipse;whiteSpace=wrap;html=1;" parent="1" vertex="1">
          <mxGeometry x="140" y="160" width="85" height="40" as="geometry" />
        </mxCell>
        <mxCell id="fcLKpJor5tCY-odWF6Bs-30" value="" style="endArrow=none;html=1;rounded=0;" parent="1" source="8UVKb1uX9S5TVUbU12FL-1" target="fcLKpJor5tCY-odWF6Bs-49" edge="1">
          <mxGeometry width="50" height="50" relative="1" as="geometry">
            <mxPoint x="471.8482352941178" y="380" as="sourcePoint" />
            <mxPoint x="486.88" y="95" as="targetPoint" />
          </mxGeometry>
        </mxCell>
        <mxCell id="fcLKpJor5tCY-odWF6Bs-31" value="" style="endArrow=none;html=1;rounded=0;" parent="1" source="fcLKpJor5tCY-odWF6Bs-45" target="fcLKpJor5tCY-odWF6Bs-4" edge="1">
          <mxGeometry width="50" height="50" relative="1" as="geometry">
            <mxPoint x="625.23" y="125" as="sourcePoint" />
            <mxPoint x="675.23" y="75" as="targetPoint" />
          </mxGeometry>
        </mxCell>
        <mxCell id="fcLKpJor5tCY-odWF6Bs-32" value="" style="endArrow=none;html=1;rounded=0;" parent="1" source="fcLKpJor5tCY-odWF6Bs-4" target="fcLKpJor5tCY-odWF6Bs-40" edge="1">
          <mxGeometry width="50" height="50" relative="1" as="geometry">
            <mxPoint x="700.23" y="325" as="sourcePoint" />
            <mxPoint x="750.23" y="275" as="targetPoint" />
          </mxGeometry>
        </mxCell>
        <mxCell id="fcLKpJor5tCY-odWF6Bs-33" value="" style="endArrow=none;html=1;rounded=0;" parent="1" source="fcLKpJor5tCY-odWF6Bs-42" target="fcLKpJor5tCY-odWF6Bs-4" edge="1">
          <mxGeometry width="50" height="50" relative="1" as="geometry">
            <mxPoint x="700.23" y="325" as="sourcePoint" />
            <mxPoint x="750.23" y="275" as="targetPoint" />
          </mxGeometry>
        </mxCell>
        <mxCell id="fcLKpJor5tCY-odWF6Bs-34" value="" style="endArrow=none;html=1;rounded=0;" parent="1" source="fcLKpJor5tCY-odWF6Bs-4" target="fcLKpJor5tCY-odWF6Bs-41" edge="1">
          <mxGeometry width="50" height="50" relative="1" as="geometry">
            <mxPoint x="700.23" y="325" as="sourcePoint" />
            <mxPoint x="750.23" y="275" as="targetPoint" />
          </mxGeometry>
        </mxCell>
        <mxCell id="fcLKpJor5tCY-odWF6Bs-36" value="" style="endArrow=none;html=1;rounded=0;" parent="1" source="fcLKpJor5tCY-odWF6Bs-2" target="fcLKpJor5tCY-odWF6Bs-9" edge="1">
          <mxGeometry width="50" height="50" relative="1" as="geometry">
            <mxPoint x="480" y="-20" as="sourcePoint" />
            <mxPoint x="530" y="-70" as="targetPoint" />
          </mxGeometry>
        </mxCell>
        <mxCell id="fcLKpJor5tCY-odWF6Bs-37" value="" style="endArrow=none;html=1;rounded=0;" parent="1" source="fcLKpJor5tCY-odWF6Bs-2" target="fcLKpJor5tCY-odWF6Bs-14" edge="1">
          <mxGeometry width="50" height="50" relative="1" as="geometry">
            <mxPoint x="480" y="-20" as="sourcePoint" />
            <mxPoint x="530" y="-70" as="targetPoint" />
          </mxGeometry>
        </mxCell>
        <mxCell id="fcLKpJor5tCY-odWF6Bs-38" value="" style="endArrow=none;html=1;rounded=0;" parent="1" source="fcLKpJor5tCY-odWF6Bs-15" target="fcLKpJor5tCY-odWF6Bs-2" edge="1">
          <mxGeometry width="50" height="50" relative="1" as="geometry">
            <mxPoint x="480" y="-20" as="sourcePoint" />
            <mxPoint x="530" y="-70" as="targetPoint" />
          </mxGeometry>
        </mxCell>
        <mxCell id="fcLKpJor5tCY-odWF6Bs-39" value="" style="endArrow=none;html=1;rounded=0;" parent="1" source="fcLKpJor5tCY-odWF6Bs-2" target="fcLKpJor5tCY-odWF6Bs-13" edge="1">
          <mxGeometry width="50" height="50" relative="1" as="geometry">
            <mxPoint x="480" y="-20" as="sourcePoint" />
            <mxPoint x="530" y="-70" as="targetPoint" />
          </mxGeometry>
        </mxCell>
        <mxCell id="fcLKpJor5tCY-odWF6Bs-40" value="name" style="ellipse;whiteSpace=wrap;html=1;" parent="1" vertex="1">
          <mxGeometry x="850" y="330" width="85" height="40" as="geometry" />
        </mxCell>
        <mxCell id="fcLKpJor5tCY-odWF6Bs-41" value="phone" style="ellipse;whiteSpace=wrap;html=1;fontStyle=0" parent="1" vertex="1">
          <mxGeometry x="820" y="385" width="85" height="40" as="geometry" />
        </mxCell>
        <mxCell id="fcLKpJor5tCY-odWF6Bs-42" value="password" style="ellipse;whiteSpace=wrap;html=1;" parent="1" vertex="1">
          <mxGeometry x="722.5" y="405" width="85" height="40" as="geometry" />
        </mxCell>
        <mxCell id="fcLKpJor5tCY-odWF6Bs-44" value="has" style="rhombus;whiteSpace=wrap;html=1;" parent="1" vertex="1">
          <mxGeometry x="285" y="290" width="80" height="80" as="geometry" />
        </mxCell>
        <mxCell id="fcLKpJor5tCY-odWF6Bs-45" value="has" style="rhombus;whiteSpace=wrap;html=1;" parent="1" vertex="1">
          <mxGeometry x="590" y="365" width="80" height="80" as="geometry" />
        </mxCell>
        <mxCell id="fcLKpJor5tCY-odWF6Bs-46" value="" style="endArrow=none;html=1;rounded=0;" parent="1" source="fcLKpJor5tCY-odWF6Bs-44" target="fcLKpJor5tCY-odWF6Bs-2" edge="1">
          <mxGeometry width="50" height="50" relative="1" as="geometry">
            <mxPoint x="478" y="-32" as="sourcePoint" />
            <mxPoint x="493" y="-90" as="targetPoint" />
          </mxGeometry>
        </mxCell>
        <mxCell id="fcLKpJor5tCY-odWF6Bs-47" value="" style="endArrow=none;html=1;rounded=0;" parent="1" source="fcLKpJor5tCY-odWF6Bs-44" target="8UVKb1uX9S5TVUbU12FL-1" edge="1">
          <mxGeometry width="50" height="50" relative="1" as="geometry">
            <mxPoint x="230.38" y="129" as="sourcePoint" />
            <mxPoint x="410.01" y="344.050310723258" as="targetPoint" />
          </mxGeometry>
        </mxCell>
        <mxCell id="fcLKpJor5tCY-odWF6Bs-48" value="" style="endArrow=none;html=1;rounded=0;" parent="1" source="fcLKpJor5tCY-odWF6Bs-45" target="8UVKb1uX9S5TVUbU12FL-1" edge="1">
          <mxGeometry width="50" height="50" relative="1" as="geometry">
            <mxPoint x="344.88" y="202" as="sourcePoint" />
            <mxPoint x="542.51" y="376.54611682060613" as="targetPoint" />
          </mxGeometry>
        </mxCell>
        <mxCell id="fcLKpJor5tCY-odWF6Bs-49" value="card" style="ellipse;whiteSpace=wrap;html=1;" parent="1" vertex="1">
          <mxGeometry x="385.64" y="420" width="85" height="40" as="geometry" />
        </mxCell>
        <mxCell id="fcLKpJor5tCY-odWF6Bs-51" value="cvv" style="ellipse;whiteSpace=wrap;html=1;" parent="1" vertex="1">
          <mxGeometry x="283.76" y="420" width="85" height="40" as="geometry" />
        </mxCell>
        <mxCell id="fcLKpJor5tCY-odWF6Bs-52" value="year" style="ellipse;whiteSpace=wrap;html=1;" parent="1" vertex="1">
          <mxGeometry x="393.14" y="525" width="85" height="40" as="geometry" />
        </mxCell>
        <mxCell id="fcLKpJor5tCY-odWF6Bs-53" value="month" style="ellipse;whiteSpace=wrap;html=1;" parent="1" vertex="1">
          <mxGeometry x="493.76" y="525" width="85" height="40" as="geometry" />
        </mxCell>
        <mxCell id="fcLKpJor5tCY-odWF6Bs-54" value="expire_date" style="ellipse;whiteSpace=wrap;html=1;" parent="1" vertex="1">
          <mxGeometry x="446.26" y="470" width="85" height="40" as="geometry" />
        </mxCell>
        <mxCell id="fcLKpJor5tCY-odWF6Bs-55" value="" style="endArrow=none;html=1;rounded=0;" parent="1" source="fcLKpJor5tCY-odWF6Bs-74" target="fcLKpJor5tCY-odWF6Bs-4" edge="1">
          <mxGeometry width="50" height="50" relative="1" as="geometry">
            <mxPoint x="775.23" y="260" as="sourcePoint" />
            <mxPoint x="795.23" y="240" as="targetPoint" />
          </mxGeometry>
        </mxCell>
        <mxCell id="fcLKpJor5tCY-odWF6Bs-57" value="" style="endArrow=none;html=1;rounded=0;" parent="1" source="fcLKpJor5tCY-odWF6Bs-2" target="fcLKpJor5tCY-odWF6Bs-73" edge="1">
          <mxGeometry width="50" height="50" relative="1" as="geometry">
            <mxPoint x="660" y="-15" as="sourcePoint" />
            <mxPoint x="680" y="-35" as="targetPoint" />
          </mxGeometry>
        </mxCell>
        <mxCell id="fcLKpJor5tCY-odWF6Bs-62" value="" style="endArrow=none;html=1;rounded=0;" parent="1" source="fcLKpJor5tCY-odWF6Bs-4" target="fcLKpJor5tCY-odWF6Bs-10" edge="1">
          <mxGeometry width="50" height="50" relative="1" as="geometry">
            <mxPoint x="298.73" y="-150" as="sourcePoint" />
            <mxPoint x="670.0027272727275" y="87.72727272727275" as="targetPoint" />
          </mxGeometry>
        </mxCell>
        <mxCell id="fcLKpJor5tCY-odWF6Bs-63" value="" style="endArrow=none;html=1;rounded=0;" parent="1" source="fcLKpJor5tCY-odWF6Bs-52" target="fcLKpJor5tCY-odWF6Bs-54" edge="1">
          <mxGeometry width="50" height="50" relative="1" as="geometry">
            <mxPoint x="448.14" y="395" as="sourcePoint" />
            <mxPoint x="468.14" y="375" as="targetPoint" />
          </mxGeometry>
        </mxCell>
        <mxCell id="fcLKpJor5tCY-odWF6Bs-64" value="" style="endArrow=none;html=1;rounded=0;" parent="1" source="fcLKpJor5tCY-odWF6Bs-53" target="fcLKpJor5tCY-odWF6Bs-54" edge="1">
          <mxGeometry width="50" height="50" relative="1" as="geometry">
            <mxPoint x="458.14" y="405" as="sourcePoint" />
            <mxPoint x="478.14" y="385" as="targetPoint" />
          </mxGeometry>
        </mxCell>
        <mxCell id="fcLKpJor5tCY-odWF6Bs-65" value="" style="endArrow=none;html=1;rounded=0;" parent="1" source="fcLKpJor5tCY-odWF6Bs-54" target="fcLKpJor5tCY-odWF6Bs-49" edge="1">
          <mxGeometry width="50" height="50" relative="1" as="geometry">
            <mxPoint x="423.14" y="415" as="sourcePoint" />
            <mxPoint x="443.14" y="395" as="targetPoint" />
          </mxGeometry>
        </mxCell>
        <mxCell id="fcLKpJor5tCY-odWF6Bs-66" value="" style="endArrow=none;html=1;rounded=0;" parent="1" source="fcLKpJor5tCY-odWF6Bs-51" target="fcLKpJor5tCY-odWF6Bs-49" edge="1">
          <mxGeometry width="50" height="50" relative="1" as="geometry">
            <mxPoint x="433.14" y="425" as="sourcePoint" />
            <mxPoint x="453.14" y="405" as="targetPoint" />
          </mxGeometry>
        </mxCell>
        <mxCell id="fcLKpJor5tCY-odWF6Bs-67" value="number" style="ellipse;whiteSpace=wrap;html=1;fontStyle=4" parent="1" vertex="1">
          <mxGeometry x="345.64" y="470" width="85" height="40" as="geometry" />
        </mxCell>
        <mxCell id="fcLKpJor5tCY-odWF6Bs-68" value="" style="endArrow=none;html=1;rounded=0;" parent="1" source="fcLKpJor5tCY-odWF6Bs-67" target="fcLKpJor5tCY-odWF6Bs-49" edge="1">
          <mxGeometry width="50" height="50" relative="1" as="geometry">
            <mxPoint x="145.14" y="423" as="sourcePoint" />
            <mxPoint x="162.14" y="427" as="targetPoint" />
          </mxGeometry>
        </mxCell>
        <mxCell id="fcLKpJor5tCY-odWF6Bs-69" value="plate_number" style="ellipse;whiteSpace=wrap;html=1;fontStyle=0" parent="1" vertex="1">
          <mxGeometry x="175" y="505" width="85" height="40" as="geometry" />
        </mxCell>
        <mxCell id="fcLKpJor5tCY-odWF6Bs-73" value="id" style="ellipse;whiteSpace=wrap;html=1;fontStyle=4" parent="1" vertex="1">
          <mxGeometry x="40" y="290" width="85" height="40" as="geometry" />
        </mxCell>
        <mxCell id="fcLKpJor5tCY-odWF6Bs-74" value="id" style="ellipse;whiteSpace=wrap;html=1;fontStyle=4" parent="1" vertex="1">
          <mxGeometry x="820" y="275" width="85" height="40" as="geometry" />
        </mxCell>
        <mxCell id="fcLKpJor5tCY-odWF6Bs-76" value="microbus" style="shape=ext;margin=3;double=1;whiteSpace=wrap;html=1;align=center;" parent="1" vertex="1">
          <mxGeometry x="136.25" y="425" width="132.5" height="50" as="geometry" />
        </mxCell>
        <mxCell id="fcLKpJor5tCY-odWF6Bs-77" value="" style="endArrow=none;html=1;rounded=0;" parent="1" source="fcLKpJor5tCY-odWF6Bs-9" target="fcLKpJor5tCY-odWF6Bs-76" edge="1">
          <mxGeometry width="50" height="50" relative="1" as="geometry">
            <mxPoint x="248.13" y="255" as="sourcePoint" />
            <mxPoint x="216.13" y="318" as="targetPoint" />
          </mxGeometry>
        </mxCell>
        <mxCell id="fcLKpJor5tCY-odWF6Bs-78" value="" style="endArrow=none;html=1;rounded=0;" parent="1" source="fcLKpJor5tCY-odWF6Bs-76" target="fcLKpJor5tCY-odWF6Bs-69" edge="1">
          <mxGeometry width="50" height="50" relative="1" as="geometry">
            <mxPoint x="186.13" y="368" as="sourcePoint" />
            <mxPoint x="143.13" y="425" as="targetPoint" />
          </mxGeometry>
        </mxCell>
        <mxCell id="fcLKpJor5tCY-odWF6Bs-81" value="" style="endArrow=none;html=1;rounded=0;" parent="1" source="fcLKpJor5tCY-odWF6Bs-11" target="fcLKpJor5tCY-odWF6Bs-2" edge="1">
          <mxGeometry width="50" height="50" relative="1" as="geometry">
            <mxPoint x="303" y="-21" as="sourcePoint" />
            <mxPoint x="280" y="25" as="targetPoint" />
          </mxGeometry>
        </mxCell>
        <mxCell id="fcLKpJor5tCY-odWF6Bs-82" value="" style="endArrow=none;html=1;rounded=0;" parent="1" source="fcLKpJor5tCY-odWF6Bs-11" target="fcLKpJor5tCY-odWF6Bs-6" edge="1">
          <mxGeometry width="50" height="50" relative="1" as="geometry">
            <mxPoint x="376" y="31" as="sourcePoint" />
            <mxPoint x="333" y="39" as="targetPoint" />
            <Array as="points" />
          </mxGeometry>
        </mxCell>
        <mxCell id="fcLKpJor5tCY-odWF6Bs-84" value="" style="endArrow=none;html=1;rounded=0;" parent="1" source="fcLKpJor5tCY-odWF6Bs-10" target="fcLKpJor5tCY-odWF6Bs-6" edge="1">
          <mxGeometry width="50" height="50" relative="1" as="geometry">
            <mxPoint x="430" y="5" as="sourcePoint" />
            <mxPoint x="491" y="-60" as="targetPoint" />
            <Array as="points" />
          </mxGeometry>
        </mxCell>
        <mxCell id="fcLKpJor5tCY-odWF6Bs-97" value="longitude" style="ellipse;whiteSpace=wrap;html=1;" parent="1" vertex="1">
          <mxGeometry x="526.88" y="260" width="85" height="40" as="geometry" />
        </mxCell>
        <mxCell id="fcLKpJor5tCY-odWF6Bs-98" value="latitude" style="ellipse;whiteSpace=wrap;html=1;" parent="1" vertex="1">
          <mxGeometry x="615" y="235" width="85" height="40" as="geometry" />
        </mxCell>
        <mxCell id="fcLKpJor5tCY-odWF6Bs-108" value="id" style="ellipse;whiteSpace=wrap;html=1;fontStyle=4" parent="1" vertex="1">
          <mxGeometry x="510" y="40" width="85" height="40" as="geometry" />
        </mxCell>
        <mxCell id="fcLKpJor5tCY-odWF6Bs-109" value="" style="endArrow=none;html=1;rounded=0;" parent="1" source="fcLKpJor5tCY-odWF6Bs-108" target="fcLKpJor5tCY-odWF6Bs-6" edge="1">
          <mxGeometry width="50" height="50" relative="1" as="geometry">
            <mxPoint x="627.88" y="59" as="sourcePoint" />
            <mxPoint x="557.88" y="10" as="targetPoint" />
          </mxGeometry>
        </mxCell>
        <mxCell id="fcLKpJor5tCY-odWF6Bs-114" value="" style="endArrow=none;html=1;rounded=0;" parent="1" source="fcLKpJor5tCY-odWF6Bs-143" target="fcLKpJor5tCY-odWF6Bs-2" edge="1">
          <mxGeometry width="50" height="50" relative="1" as="geometry">
            <mxPoint x="331.3636363636365" y="216.3636363636365" as="sourcePoint" />
            <mxPoint x="315" y="68" as="targetPoint" />
          </mxGeometry>
        </mxCell>
        <mxCell id="fcLKpJor5tCY-odWF6Bs-118" value="" style="endArrow=none;html=1;rounded=0;" parent="1" source="fcLKpJor5tCY-odWF6Bs-138" target="fcLKpJor5tCY-odWF6Bs-4" edge="1">
          <mxGeometry width="50" height="50" relative="1" as="geometry">
            <mxPoint x="699.2088607594937" y="258.2911392405065" as="sourcePoint" />
            <mxPoint x="582" y="-174" as="targetPoint" />
            <Array as="points" />
          </mxGeometry>
        </mxCell>
        <mxCell id="fcLKpJor5tCY-odWF6Bs-119" value="description" style="ellipse;whiteSpace=wrap;html=1;" parent="1" vertex="1">
          <mxGeometry x="742.5" y="20" width="85" height="40" as="geometry" />
        </mxCell>
        <mxCell id="fcLKpJor5tCY-odWF6Bs-120" value="" style="endArrow=none;html=1;rounded=0;" parent="1" source="fcLKpJor5tCY-odWF6Bs-119" target="fcLKpJor5tCY-odWF6Bs-10" edge="1">
          <mxGeometry width="50" height="50" relative="1" as="geometry">
            <mxPoint x="540" y="474" as="sourcePoint" />
            <mxPoint x="743" y="240" as="targetPoint" />
          </mxGeometry>
        </mxCell>
        <mxCell id="fcLKpJor5tCY-odWF6Bs-121" value="response" style="ellipse;whiteSpace=wrap;html=1;" parent="1" vertex="1">
          <mxGeometry x="782.5" y="140" width="85" height="40" as="geometry" />
        </mxCell>
        <mxCell id="fcLKpJor5tCY-odWF6Bs-122" value="" style="endArrow=none;html=1;rounded=0;" parent="1" source="fcLKpJor5tCY-odWF6Bs-121" target="fcLKpJor5tCY-odWF6Bs-10" edge="1">
          <mxGeometry width="50" height="50" relative="1" as="geometry">
            <mxPoint x="467" y="157" as="sourcePoint" />
            <mxPoint x="589" y="111" as="targetPoint" />
          </mxGeometry>
        </mxCell>
        <mxCell id="fcLKpJor5tCY-odWF6Bs-123" value="is_cash" style="ellipse;whiteSpace=wrap;html=1;" parent="1" vertex="1">
          <mxGeometry x="772.5" y="80" width="85" height="40" as="geometry" />
        </mxCell>
        <mxCell id="fcLKpJor5tCY-odWF6Bs-124" value="" style="endArrow=none;html=1;rounded=0;" parent="1" source="fcLKpJor5tCY-odWF6Bs-123" target="fcLKpJor5tCY-odWF6Bs-10" edge="1">
          <mxGeometry width="50" height="50" relative="1" as="geometry">
            <mxPoint x="457" y="223" as="sourcePoint" />
            <mxPoint x="595" y="117" as="targetPoint" />
          </mxGeometry>
        </mxCell>
        <mxCell id="fcLKpJor5tCY-odWF6Bs-125" value="is_accepted" style="ellipse;whiteSpace=wrap;html=1;" parent="1" vertex="1">
          <mxGeometry x="880" y="160" width="85" height="40" as="geometry" />
        </mxCell>
        <mxCell id="fcLKpJor5tCY-odWF6Bs-126" value="fee_amount" style="ellipse;whiteSpace=wrap;html=1;" parent="1" vertex="1">
          <mxGeometry x="812.5" y="210" width="85" height="40" as="geometry" />
        </mxCell>
        <mxCell id="fcLKpJor5tCY-odWF6Bs-127" value="is_riding" style="ellipse;whiteSpace=wrap;html=1;" parent="1" vertex="1">
          <mxGeometry x="880" y="100" width="85" height="40" as="geometry" />
        </mxCell>
        <mxCell id="fcLKpJor5tCY-odWF6Bs-130" value="" style="endArrow=none;html=1;rounded=0;" parent="1" source="fcLKpJor5tCY-odWF6Bs-125" target="fcLKpJor5tCY-odWF6Bs-121" edge="1">
          <mxGeometry width="50" height="50" relative="1" as="geometry">
            <mxPoint x="506" y="202" as="sourcePoint" />
            <mxPoint x="597" y="119" as="targetPoint" />
          </mxGeometry>
        </mxCell>
        <mxCell id="fcLKpJor5tCY-odWF6Bs-131" value="" style="endArrow=none;html=1;rounded=0;" parent="1" source="fcLKpJor5tCY-odWF6Bs-126" target="fcLKpJor5tCY-odWF6Bs-121" edge="1">
          <mxGeometry width="50" height="50" relative="1" as="geometry">
            <mxPoint x="399" y="227" as="sourcePoint" />
            <mxPoint x="445" y="223" as="targetPoint" />
          </mxGeometry>
        </mxCell>
        <mxCell id="fcLKpJor5tCY-odWF6Bs-132" value="" style="endArrow=none;html=1;rounded=0;" parent="1" source="fcLKpJor5tCY-odWF6Bs-127" target="fcLKpJor5tCY-odWF6Bs-121" edge="1">
          <mxGeometry width="50" height="50" relative="1" as="geometry">
            <mxPoint x="416" y="269" as="sourcePoint" />
            <mxPoint x="463" y="236" as="targetPoint" />
          </mxGeometry>
        </mxCell>
        <mxCell id="fcLKpJor5tCY-odWF6Bs-138" value="location" style="ellipse;whiteSpace=wrap;html=1;" parent="1" vertex="1">
          <mxGeometry x="615" y="285" width="85" height="40" as="geometry" />
        </mxCell>
        <mxCell id="fcLKpJor5tCY-odWF6Bs-139" value="" style="endArrow=none;html=1;rounded=0;" parent="1" source="fcLKpJor5tCY-odWF6Bs-138" target="fcLKpJor5tCY-odWF6Bs-98" edge="1">
          <mxGeometry width="50" height="50" relative="1" as="geometry">
            <mxPoint x="341.3636363636365" y="226.3636363636365" as="sourcePoint" />
            <mxPoint x="255" y="243" as="targetPoint" />
          </mxGeometry>
        </mxCell>
        <mxCell id="fcLKpJor5tCY-odWF6Bs-140" value="" style="endArrow=none;html=1;rounded=0;" parent="1" source="fcLKpJor5tCY-odWF6Bs-138" target="fcLKpJor5tCY-odWF6Bs-97" edge="1">
          <mxGeometry width="50" height="50" relative="1" as="geometry">
            <mxPoint x="351.3636363636365" y="236.3636363636365" as="sourcePoint" />
            <mxPoint x="265" y="253" as="targetPoint" />
          </mxGeometry>
        </mxCell>
        <mxCell id="fcLKpJor5tCY-odWF6Bs-141" value="longitude" style="ellipse;whiteSpace=wrap;html=1;" parent="1" vertex="1">
          <mxGeometry x="353.75" y="245" width="85" height="40" as="geometry" />
        </mxCell>
        <mxCell id="fcLKpJor5tCY-odWF6Bs-142" value="latitude" style="ellipse;whiteSpace=wrap;html=1;" parent="1" vertex="1">
          <mxGeometry x="353.75" y="190" width="85" height="40" as="geometry" />
        </mxCell>
        <mxCell id="fcLKpJor5tCY-odWF6Bs-143" value="location" style="ellipse;whiteSpace=wrap;html=1;" parent="1" vertex="1">
          <mxGeometry x="268.75" y="220" width="85" height="40" as="geometry" />
        </mxCell>
        <mxCell id="fcLKpJor5tCY-odWF6Bs-144" value="" style="endArrow=none;html=1;rounded=0;" parent="1" source="fcLKpJor5tCY-odWF6Bs-143" target="fcLKpJor5tCY-odWF6Bs-142" edge="1">
          <mxGeometry width="50" height="50" relative="1" as="geometry">
            <mxPoint x="204.4836363636365" y="186.3636363636365" as="sourcePoint" />
            <mxPoint x="118.12" y="203" as="targetPoint" />
          </mxGeometry>
        </mxCell>
        <mxCell id="fcLKpJor5tCY-odWF6Bs-145" value="" style="endArrow=none;html=1;rounded=0;" parent="1" source="fcLKpJor5tCY-odWF6Bs-143" target="fcLKpJor5tCY-odWF6Bs-141" edge="1">
          <mxGeometry width="50" height="50" relative="1" as="geometry">
            <mxPoint x="214.4836363636365" y="196.3636363636365" as="sourcePoint" />
            <mxPoint x="128.12" y="213" as="targetPoint" />
          </mxGeometry>
        </mxCell>
        <mxCell id="fcLKpJor5tCY-odWF6Bs-152" value="is_full" style="ellipse;whiteSpace=wrap;html=1;fontStyle=0" parent="1" vertex="1">
          <mxGeometry x="410.01" y="20" width="85" height="40" as="geometry" />
        </mxCell>
        <mxCell id="fcLKpJor5tCY-odWF6Bs-153" value="" style="endArrow=none;html=1;rounded=0;" parent="1" source="fcLKpJor5tCY-odWF6Bs-6" target="fcLKpJor5tCY-odWF6Bs-152" edge="1">
          <mxGeometry width="50" height="50" relative="1" as="geometry">
            <mxPoint x="527" y="80" as="sourcePoint" />
            <mxPoint x="529" y="100" as="targetPoint" />
          </mxGeometry>
        </mxCell>
        <mxCell id="fcLKpJor5tCY-odWF6Bs-154" value="longitude" style="ellipse;whiteSpace=wrap;html=1;" parent="1" vertex="1">
          <mxGeometry x="210" y="50" width="85" height="40" as="geometry" />
        </mxCell>
        <mxCell id="fcLKpJor5tCY-odWF6Bs-155" value="latitude" style="ellipse;whiteSpace=wrap;html=1;" parent="1" vertex="1">
          <mxGeometry x="300" y="20" width="85" height="40" as="geometry" />
        </mxCell>
        <mxCell id="fcLKpJor5tCY-odWF6Bs-156" value="from" style="ellipse;whiteSpace=wrap;html=1;" parent="1" vertex="1">
          <mxGeometry x="341.26" y="80" width="85" height="40" as="geometry" />
        </mxCell>
        <mxCell id="fcLKpJor5tCY-odWF6Bs-157" value="" style="endArrow=none;html=1;rounded=0;" parent="1" source="fcLKpJor5tCY-odWF6Bs-156" target="fcLKpJor5tCY-odWF6Bs-155" edge="1">
          <mxGeometry width="50" height="50" relative="1" as="geometry">
            <mxPoint x="371.9936363636365" y="-193.6363636363635" as="sourcePoint" />
            <mxPoint x="285.63" y="-177" as="targetPoint" />
          </mxGeometry>
        </mxCell>
        <mxCell id="fcLKpJor5tCY-odWF6Bs-158" value="" style="endArrow=none;html=1;rounded=0;" parent="1" source="fcLKpJor5tCY-odWF6Bs-156" target="fcLKpJor5tCY-odWF6Bs-154" edge="1">
          <mxGeometry width="50" height="50" relative="1" as="geometry">
            <mxPoint x="381.9936363636365" y="-183.6363636363635" as="sourcePoint" />
            <mxPoint x="295.63" y="-167" as="targetPoint" />
          </mxGeometry>
        </mxCell>
        <mxCell id="fcLKpJor5tCY-odWF6Bs-160" value="longitude" style="ellipse;whiteSpace=wrap;html=1;" parent="1" vertex="1">
          <mxGeometry x="637.5" y="30" width="85" height="40" as="geometry" />
        </mxCell>
        <mxCell id="fcLKpJor5tCY-odWF6Bs-161" value="latitude" style="ellipse;whiteSpace=wrap;html=1;" parent="1" vertex="1">
          <mxGeometry x="564.38" width="85" height="40" as="geometry" />
        </mxCell>
        <mxCell id="fcLKpJor5tCY-odWF6Bs-162" value="to" style="ellipse;whiteSpace=wrap;html=1;" parent="1" vertex="1">
          <mxGeometry x="578.76" y="80" width="85" height="40" as="geometry" />
        </mxCell>
        <mxCell id="fcLKpJor5tCY-odWF6Bs-163" value="" style="endArrow=none;html=1;rounded=0;" parent="1" source="fcLKpJor5tCY-odWF6Bs-162" target="fcLKpJor5tCY-odWF6Bs-161" edge="1">
          <mxGeometry width="50" height="50" relative="1" as="geometry">
            <mxPoint x="519.5036363636365" y="-183.6363636363635" as="sourcePoint" />
            <mxPoint x="433.14" y="-167" as="targetPoint" />
          </mxGeometry>
        </mxCell>
        <mxCell id="fcLKpJor5tCY-odWF6Bs-164" value="" style="endArrow=none;html=1;rounded=0;" parent="1" source="fcLKpJor5tCY-odWF6Bs-162" target="fcLKpJor5tCY-odWF6Bs-160" edge="1">
          <mxGeometry width="50" height="50" relative="1" as="geometry">
            <mxPoint x="529.5036363636365" y="-173.6363636363635" as="sourcePoint" />
            <mxPoint x="443.14" y="-157" as="targetPoint" />
          </mxGeometry>
        </mxCell>
        <mxCell id="fcLKpJor5tCY-odWF6Bs-165" value="" style="endArrow=none;html=1;rounded=0;" parent="1" source="fcLKpJor5tCY-odWF6Bs-162" target="fcLKpJor5tCY-odWF6Bs-6" edge="1">
          <mxGeometry width="50" height="50" relative="1" as="geometry">
            <mxPoint x="489" y="80" as="sourcePoint" />
            <mxPoint x="456" y="103" as="targetPoint" />
          </mxGeometry>
        </mxCell>
        <mxCell id="fcLKpJor5tCY-odWF6Bs-166" value="" style="endArrow=none;html=1;rounded=0;" parent="1" source="fcLKpJor5tCY-odWF6Bs-6" target="fcLKpJor5tCY-odWF6Bs-156" edge="1">
          <mxGeometry width="50" height="50" relative="1" as="geometry">
            <mxPoint x="499" y="90" as="sourcePoint" />
            <mxPoint x="466" y="113" as="targetPoint" />
          </mxGeometry>
        </mxCell>
        <mxCell id="8UVKb1uX9S5TVUbU12FL-1" value="bank_account" style="rounded=0;whiteSpace=wrap;html=1;" parent="1" vertex="1">
          <mxGeometry x="410.01" y="335" width="130" height="50" as="geometry" />
        </mxCell>
        <mxCell id="8UVKb1uX9S5TVUbU12FL-2" value="id" style="ellipse;whiteSpace=wrap;html=1;fontStyle=4" parent="1" vertex="1">
          <mxGeometry x="493.76" y="410" width="85" height="40" as="geometry" />
        </mxCell>
        <mxCell id="8UVKb1uX9S5TVUbU12FL-3" value="" style="endArrow=none;html=1;rounded=0;" parent="1" source="8UVKb1uX9S5TVUbU12FL-2" target="fcLKpJor5tCY-odWF6Bs-49" edge="1">
          <mxGeometry width="50" height="50" relative="1" as="geometry">
            <mxPoint x="470" y="395" as="sourcePoint" />
            <mxPoint x="449" y="431" as="targetPoint" />
          </mxGeometry>
        </mxCell>
      </root>
    </mxGraphModel>
  </diagram>
</mxfile>
